<svg xmlns="http://www.w3.org/2000/svg" viewBox="0 0 1024 1024" role="img" aria-labelledby="title desc">
  <title id="title">Launch Ribbon Mark</title>
  <desc id="desc">A fast ribbon-like launcher mark with an upward action cue and folded depth.</desc>
  <defs>
    <linearGradient id="bg" x1="132" y1="96" x2="892" y2="928" gradientUnits="userSpaceOnUse">
      <stop offset="0" stop-color="#F5FBFF"/>
      <stop offset="0.54" stop-color="#D7EEF6"/>
      <stop offset="1" stop-color="#B7D2DF"/>
    </linearGradient>
    <linearGradient id="ribbonA" x1="204" y1="248" x2="786" y2="720" gradientUnits="userSpaceOnUse">
      <stop offset="0" stop-color="#00D7C6"/>
      <stop offset="0.52" stop-color="#2A93FF"/>
      <stop offset="1" stop-color="#1641A8"/>
    </linearGradient>
    <linearGradient id="ribbonB" x1="270" y1="742" x2="770" y2="376" gradientUnits="userSpaceOnUse">
      <stop offset="0" stop-color="#071E38"/>
      <stop offset="1" stop-color="#3154FF"/>
    </linearGradient>
    <filter id="shadow" x="-20%" y="-20%" width="140%" height="140%">
      <feDropShadow dx="0" dy="36" stdDeviation="34" flood-color="#0B3048" flood-opacity="0.25"/>
    </filter>
  </defs>
  <rect width="1024" height="1024" rx="228" fill="url(#bg)"/>
  <circle cx="796" cy="196" r="72" fill="#FFFFFF" opacity="0.85"/>
  <circle cx="196" cy="786" r="110" fill="#1C4EC4" opacity="0.1"/>
  <g filter="url(#shadow)">
    <path d="M256 648 544 250h194L450 648H256Z" fill="url(#ribbonA)"/>
    <path d="M450 648h194l124 150H574L450 648Z" fill="url(#ribbonB)"/>
    <path d="M450 648 574 798 256 648h194Z" fill="#05243E" opacity="0.18"/>
    <path d="M544 250h194L618 416H424l120-166Z" fill="#FFFFFF" opacity="0.18"/>
  </g>
  <path d="M414 524h214" stroke="#FFFFFF" stroke-width="54" stroke-linecap="round" opacity="0.9"/>
  <path d="M574 416 690 524 574 632" fill="none" stroke="#FFFFFF" stroke-width="54" stroke-linecap="round" stroke-linejoin="round"/>
  <g opacity="0.92">
    <rect x="286" y="286" width="64" height="64" rx="20" fill="#0C314E"/>
    <rect x="286" y="376" width="64" height="64" rx="20" fill="#0C314E" opacity="0.7"/>
    <rect x="376" y="286" width="64" height="64" rx="20" fill="#0C314E" opacity="0.7"/>
  </g>
</svg>
